<svg width="27" height="16" viewBox="0 0 27 16" fill="none" xmlns="http://www.w3.org/2000/svg">
<path fill-rule="evenodd" clip-rule="evenodd" d="M6.25157 0.0713997C5.10026 0.300793 4.01225 0.931814 3.16403 1.86212C2.32694 2.78012 1.51937 4.15312 0.963835 5.60263C0.0362458 8.02304 -0.238488 10.8766 0.212291 13.4095C0.455501 14.7761 0.869265 15.4555 1.67467 15.8109C1.9832 15.947 2.07977 15.9653 2.57253 15.9817L3.12469 16L3.60525 15.7807C3.88632 15.6525 4.33467 15.3822 4.68533 15.1295C5.36987 14.6363 6.62462 13.5243 7.43879 12.6893C7.74373 12.3766 8.10015 12.0574 8.23084 11.9801C8.75517 11.6699 8.52342 11.6829 13.5218 11.6829C17.8681 11.6829 18.0668 11.6867 18.3454 11.7744C18.7021 11.8868 18.969 12.0592 19.2653 12.369C20.863 14.0387 22.4696 15.3534 23.4645 15.8051L23.8869 15.9969L24.4434 15.9806C24.9456 15.9658 25.034 15.9492 25.3508 15.8095C25.9027 15.566 26.2976 15.1174 26.5586 14.4376C26.6668 14.1558 26.8311 13.3687 26.9313 12.6529C27.0344 11.9158 27.0184 9.76871 26.9039 8.96214C26.6106 6.89794 26.0521 5.24009 25.0948 3.59165C23.9761 1.66556 22.6779 0.552804 21.0619 0.134994C20.4998 -0.0103642 19.3154 -0.0452367 18.6594 0.0643024C17.7162 0.221774 16.8171 0.551432 15.8609 1.09033C15.0222 1.56298 14.8184 1.6155 13.7232 1.64119C12.3385 1.6737 12.0933 1.61455 10.9238 0.965599C10.3101 0.625058 9.54003 0.326723 8.83807 0.15747C8.39189 0.0499178 8.17904 0.0276788 7.46519 0.0140515C6.83911 0.00208024 6.52483 0.0169377 6.25157 0.0713997ZM19.4105 2.81825C19.949 3.04613 20.2538 3.53236 20.2044 4.08455C20.1041 5.2045 18.5887 5.69499 17.7162 4.88994C17.4551 4.6491 17.3476 4.41984 17.3226 4.05053C17.296 3.66012 17.4011 3.37773 17.6732 3.10779C18.1207 2.66391 18.7844 2.55332 19.4105 2.81825ZM8.29684 3.69897L8.49485 3.77609V4.5829V5.3897H9.3652H10.2356L10.3803 5.63812C10.5761 5.97402 10.5846 6.47554 10.4008 6.8447L10.2772 7.09312H9.3332H8.38925V7.89656V8.69996L8.16483 8.80709C7.97981 8.89538 7.85705 8.91421 7.46519 8.9145C7.05798 8.91478 6.95786 8.89836 6.76556 8.79966L6.54114 8.68449V7.8888V7.09312H5.64999H4.75883L4.63834 6.8447C4.48025 6.51878 4.47211 5.99072 4.62001 5.64995L4.72266 5.41336L5.65828 5.40044L6.59395 5.38753V4.56056C6.59395 4.10575 6.59986 3.73327 6.60715 3.73289C6.61443 3.73251 6.71539 3.70034 6.83156 3.6614C7.11284 3.56714 8.01783 3.59037 8.29684 3.69897ZM23.0284 4.7389C23.5259 4.92628 23.8578 5.39434 23.8588 5.91019C23.8612 7.05574 22.3761 7.65482 21.4409 6.88554C20.7087 6.28319 20.8218 5.24075 21.6676 4.79654C22.0886 4.57547 22.5432 4.55621 23.0284 4.7389ZM19.347 6.4003C19.6899 6.54339 19.9387 6.76961 20.0996 7.08465C20.2062 7.29313 20.2248 7.39183 20.2071 7.65274C20.1561 8.4021 19.5647 8.89287 18.716 8.89013C18.1978 8.88847 17.7601 8.6579 17.4894 8.24387C17.3095 7.96872 17.2618 7.48542 17.3832 7.16627C17.6538 6.45434 18.5959 6.08687 19.347 6.4003Z" fill="white" fill-opacity="0.25"/>
</svg>
